<svg width="477" height="236" viewBox="0 0 477 236" fill="none" xmlns="http://www.w3.org/2000/svg">
<path opacity="0.2" d="M169.924 235.72C263.77 235.72 339.848 226.732 339.848 215.646C339.848 204.559 263.77 195.572 169.924 195.572C76.0776 195.572 0 204.559 0 215.646C0 226.732 76.0776 235.72 169.924 235.72Z" fill="#4B1306"/>
<path d="M260.859 71.8531C227.654 68.0324 206.514 73.3031 198.071 70.3686C182.701 65.0273 150.158 69.9134 145.708 71.9669C141.257 74.0203 135.9 98.9752 135.9 98.9752L141.921 97.7649C141.921 97.7649 152.66 86.3219 155.134 82.9064C155.787 82.0047 156.201 81.0219 156.201 79.9823C156.201 77.403 190.213 88.515 198.025 85.7081C198.025 85.7081 246.795 97.7649 263.249 94.2563L260.859 71.8531Z" fill="#EED1A1"/>
<path d="M261.571 94.5405C262.161 94.4595 262.721 94.3646 263.247 94.2526L260.859 71.8494C252.789 70.9201 245.445 70.5356 238.809 70.4321L240.357 83.3906C212.826 80.3389 180.996 75.1321 154.787 75.1321C151.351 75.1321 149.112 80.5906 142.216 89.2113C142.216 90.0854 140.443 90.0699 138.249 89.3975C136.837 94.6164 135.9 98.9715 135.9 98.9715L141.921 97.7612C141.921 97.7612 152.66 86.3182 155.134 82.9027C155.787 82.001 156.201 81.0182 156.201 79.9786C156.201 77.3993 190.213 88.5113 198.025 85.7044C198.025 85.7044 233.283 94.4181 253.955 94.8698C256.784 94.9836 259.265 94.8853 261.571 94.5405Z" fill="#DDBB82"/>
<path d="M282.101 68.5928H243.265L246.725 98.3252H289.071C289.071 98.3252 303.953 98.3252 300.467 83.4599C296.983 68.5928 282.101 68.5928 282.101 68.5928Z" fill="#B87A5A"/>
<path opacity="0.2" d="M300.536 83.4581C297.05 68.5928 282.17 68.5928 282.17 68.5928H262.257C262.802 69.641 263.307 70.7186 263.717 71.8669C267.35 82.0409 264.514 92.0253 257.443 98.3252H289.142C289.142 98.3252 304.02 98.3252 300.536 83.4581Z" fill="#4B1306"/>
<path d="M68.4833 211.491L65.999 193.27L42.8889 196.422L45.3732 214.642L68.4833 211.491Z" fill="#EED1A1"/>
<path d="M68.5576 211.491L67.7373 205.474L44.6272 208.626L45.4475 214.642L68.5576 211.491Z" fill="#DDBB82"/>
<path d="M57.8789 188.952L143.93 168.428L209.49 168.621L187.212 121.111L171.102 168.507L143.93 168.428C143.93 168.428 157.448 77.9358 181.261 75.5652C205.073 73.1945 254.638 160.192 254.638 160.192L299.286 198.897C289.031 224.148 181.428 206.966 149.6 209.324C108.712 212.355 63.0631 220.165 63.0631 220.165L57.8789 188.952Z" fill="#E8C17E"/>
<path opacity="0.2" d="M254.638 160.193C254.638 160.193 205.073 73.1955 181.261 75.5661C157.45 77.9368 143.93 168.429 143.93 168.429L171.102 168.508L187.212 121.112L209.49 168.622L143.93 168.429C143.93 168.429 138.109 176.525 154.057 182.582C170.004 188.639 200.158 190.846 199.563 195.582C198.968 200.318 164.801 198.318 153.977 199.037C143.156 199.756 75.2832 207.886 72.9816 206.463C69.58 204.361 69.2559 192.677 68.1249 186.51L57.8789 188.953L63.0631 220.168C63.0631 220.168 108.711 212.358 149.6 209.327C181.429 206.967 289.031 224.151 299.286 198.899L254.638 160.193Z" fill="#4B1306"/>
<path d="M302.67 203.683C302.67 203.683 354.989 122.948 326.046 75.1276C320.036 65.1984 306.752 59.3105 298.178 58.6933C281.279 57.4761 272.623 68.4828 272.623 82.3689C272.623 102.136 262.472 146.553 248.903 150.477C248.903 150.477 255.256 189.354 302.67 203.683Z" fill="#B87A5A"/>
<path opacity="0.2" d="M324.561 145.479C317.398 160.484 299.609 184.543 280.077 175.782C267.761 170.258 261.032 155.977 257.666 142.069C254.98 146.49 252.034 149.571 248.901 150.477C248.901 150.477 255.256 189.356 302.669 203.684C302.669 203.684 334.983 153.808 334.764 109.24C333.232 121.723 330.094 133.891 324.561 145.479Z" fill="#4B1306"/>
<path d="M272.619 48.8137L284.429 74.6358C284.429 74.6358 297.961 77.5841 300.549 68.998L294.77 26.6519L272.619 48.8137Z" fill="#EED1A1"/>
<path d="M299.061 58.0944L294.77 26.6499L272.619 48.8135L284.043 73.7925C290.067 69.5288 294.782 64.0185 299.061 58.0944Z" fill="#DDBB82"/>
<path d="M254.359 41.046C256.564 57.8562 259.245 69.1958 267.587 70.6354C275.928 72.0751 287.268 63.2131 293.579 53.8735C310.565 28.741 297.984 10.8394 288.404 6.58949C264.903 -3.83282 252.154 24.2341 254.359 41.046Z" fill="#EED1A1"/>
<path d="M288.513 25.5824C295.041 27.9737 285.831 37.4943 297.082 37.4943C301.306 20.7083 295.778 9.90495 288.331 6.60153C269.313 -1.83287 257.629 13.4342 254.922 29.0496C271.045 36.1478 281.986 23.191 288.513 25.5824Z" fill="#DDBB82"/>
<path d="M265.179 53.5782C275.308 54.6678 286.609 58.1316 289.783 45.9662C292.957 33.7991 294.029 21.9837 287.936 20.2906C281.844 18.5975 271.823 29.406 260.896 27.1215C249.969 24.8371 242.515 17.4441 249.588 8.79933C256.66 0.154589 265.21 3.8649 265.21 3.8649C265.21 3.8649 285.419 -5.16088 298.422 4.37351C311.425 13.9096 307.287 40.0111 297.786 52.3816C288.285 64.7522 284.766 74.9797 268.053 74.3987C250.719 73.7987 255.05 52.4903 265.179 53.5782Z" fill="#4B1306"/>
<path d="M288.573 4.00501C288.663 5.34292 285.044 6.67568 280.491 6.98257C275.938 7.28774 272.174 6.45153 272.085 5.11189C271.995 3.77397 275.614 2.44123 280.165 2.13606C284.72 1.83089 288.484 2.66709 288.573 4.00501Z" fill="#701E0A"/>
<path d="M261.384 6.91542C262.342 8.28782 260.686 11.0981 257.686 13.1947C254.686 15.2912 251.476 15.8791 250.517 14.5067C249.559 13.1343 251.214 10.324 254.215 8.22747C257.217 6.13094 260.425 5.54474 261.384 6.91542Z" fill="#701E0A"/>
<path d="M294.125 32.3438C294.125 32.3438 299.39 24.8732 303.087 32.4438C305.549 37.4869 301.887 50.0574 292.87 47.2764L294.125 32.3438Z" fill="#EED1A1"/>
<path d="M275.754 39.0447C276.978 39.0067 278.014 40.2377 278.063 41.7912C278.111 43.3446 277.156 44.6394 275.93 44.6774C274.706 44.7153 273.67 43.4843 273.62 41.9308C273.573 40.3774 274.53 39.0826 275.754 39.0447Z" fill="#4B1306"/>
<path d="M258.273 39.3257C259.497 39.2878 260.533 40.5188 260.583 42.0722C260.632 43.6256 259.675 44.9205 258.451 44.9584C257.227 44.9963 256.19 43.7653 256.14 42.2119C256.092 40.6584 257.049 39.3636 258.273 39.3257Z" fill="#4B1306"/>
<path d="M266.887 52.2097C267.202 52.1476 267.513 52.0407 267.806 51.8873C267.978 51.7976 268.044 51.5873 267.956 51.4166C267.868 51.2459 267.656 51.1769 267.485 51.2683C266.551 51.7545 265.566 51.5942 265.006 51.2183C264.747 51.0459 264.322 50.658 264.377 50.0028C264.422 49.4856 264.892 48.5597 265.392 47.5787C266.337 45.7253 267.406 43.6253 266.818 42.1994C266.744 42.0201 266.532 41.9374 266.361 42.0098C266.182 42.0839 266.097 42.2874 266.171 42.4667C266.637 43.596 265.601 45.6287 264.768 47.2614C264.213 48.3511 263.734 49.2907 263.678 49.9442C263.615 50.6838 263.956 51.3614 264.616 51.8011C265.259 52.2287 266.085 52.3666 266.887 52.2097Z" fill="#262743"/>
<path d="M270.134 34.7176C270.201 34.4003 270.387 34.1296 270.658 33.9521C274.075 31.7176 278.192 31.7469 282.895 34.0365C283.495 34.3279 283.745 35.0537 283.454 35.6555C283.252 36.0693 282.84 36.3313 282.378 36.3365C282.194 36.3382 282.008 36.2968 281.835 36.2158C277.899 34.3003 274.675 34.2227 271.982 35.9796C271.711 36.1589 271.391 36.221 271.072 36.1537C270.755 36.0882 270.482 35.902 270.305 35.6296C270.129 35.3572 270.067 35.0348 270.134 34.7176Z" fill="#4B1306"/>
<path d="M260.776 35.9697C261.047 36.149 261.368 36.2111 261.687 36.1438C262.004 36.0783 262.276 35.8921 262.454 35.6197C262.631 35.349 262.692 35.0266 262.625 34.7094C262.557 34.3921 262.371 34.1214 262.1 33.9439C259.816 32.4508 257.215 31.9921 254.341 32.5197C253.741 33.3094 253.587 34.4456 254.12 35.0318C256.652 34.4128 258.852 34.7145 260.776 35.9697Z" fill="#4B1306"/>
<path d="M264.883 50.0901C264.897 50.5332 265.516 50.8745 266.264 50.8504C267.012 50.8262 267.607 50.4487 267.593 50.0038C267.579 49.5607 266.962 49.2194 266.212 49.2435C265.464 49.2677 264.869 49.647 264.883 50.0901Z" fill="#FFC2BD"/>
<path d="M298.935 34.613C297.705 34.4043 296.424 35.9181 296.074 37.9905C295.724 40.0646 296.437 41.9129 297.664 42.1215C298.893 42.3301 300.174 40.8163 300.524 38.744C300.876 36.6716 300.164 34.8216 298.935 34.613Z" fill="#DDBB82"/>
<path d="M47.8019 193.806L49.1553 215.599C49.1553 215.599 38.4541 225.721 30.2355 224.552C22.0187 223.383 4.71777 184.044 4.71777 178.52C4.71777 172.997 11.5347 170.742 17.0172 178.154C22.5014 185.57 34.7094 198.285 47.8019 193.806Z" fill="#4B1306"/>
<path opacity="0.15" d="M37.0863 209.905C40.1741 208.876 41.1189 202.854 41.4102 196.783C31.4935 197.68 22.6078 188.297 18.3752 182.575C16.1064 179.507 13.5772 178.376 11.5566 178.544C17.1357 191.983 23.2319 211.292 37.0863 209.905Z" fill="#FCFFFD"/>
<path d="M129.963 89.189L163.099 94.5562C163.818 94.6734 164.444 95.1113 164.799 95.7475L207.848 172.935C208.8 174.642 207.407 176.705 205.468 176.459L168.873 171.817C168.073 171.716 167.385 171.23 167.035 170.504C162.909 161.961 129.668 110.165 121.734 94.6562C120.846 92.9165 128.035 88.8769 129.963 89.189Z" fill="#7ED6DF"/>
<path d="M123.972 92.7722L157.108 98.1394C157.827 98.2567 158.453 98.6946 158.808 99.3308L201.857 176.518C202.809 178.225 201.416 180.289 199.476 180.042L162.882 175.401C162.082 175.299 161.394 174.813 161.044 174.087C156.918 165.544 129.395 111.705 121.463 96.1963C120.573 94.4567 122.046 92.4602 123.972 92.7722Z" fill="#DFF9FB"/>
<path d="M273.454 173.379L201.518 174.22C199.629 174.243 198.172 175.891 198.384 177.77C198.567 179.394 199.946 180.617 201.578 180.605L273.513 180.081C275.258 180.068 276.67 178.656 276.682 176.912L276.683 176.594C276.697 174.808 275.24 173.358 273.454 173.379Z" fill="#7ED6DF"/>
<path d="M217.464 174.145L226.472 164.502L246.776 166.064C246.776 166.064 287.26 153.902 291.027 149.559C294.794 145.216 303.453 106.034 303.453 106.034L326.012 104.775C326.012 104.775 317.686 158.18 313.343 162.33C309.001 166.481 276.709 173.34 276.709 173.34L217.464 174.145Z" fill="#EED1A1"/>
<path d="M219.372 172.108L217.464 174.151L276.711 173.347C276.711 173.347 278.99 172.949 286.555 171.051L219.372 172.108Z" fill="#DDBB82"/>
<path d="M319.118 144.094C322.296 128.261 326.08 104.775 326.08 104.775L303.521 106.034C303.521 106.034 299.25 125.354 295.402 138.366L319.118 144.094Z" fill="#DDBB82"/>
<path d="M160.955 138.563C162.131 141.714 161.647 144.806 159.876 145.466C158.105 146.126 155.716 144.106 154.542 140.954C153.368 137.802 153.85 134.711 155.621 134.051C157.392 133.39 159.78 135.411 160.955 138.563Z" fill="#7ED6DF"/>
<path d="M324.075 139.539L293.913 134.051L301.471 92.5066C302.987 84.1774 310.967 78.6533 319.296 80.1688C327.625 81.6843 333.149 89.6653 331.634 97.9945L324.075 139.539Z" fill="#B87A5A"/>
<path opacity="0.2" d="M319.252 80.168C315.392 79.4663 311.616 80.2904 308.515 82.1887C310.173 81.9404 311.937 82.1507 313.799 83.0525C322.959 87.4852 322.343 101.464 321.805 109.792C321.15 119.914 322.048 132.397 312.62 137.461L324.029 139.536L331.588 97.9919C333.103 89.6644 327.581 81.6835 319.252 80.168Z" fill="#4B1306"/>
<path d="M418.35 131.77C418.35 131.77 399.017 128.608 392.343 118.772C385.668 108.936 394.464 104.369 394.464 104.369C394.464 104.369 380.274 97.2024 379.221 89.124C378.168 81.0438 385.682 77.5304 385.682 77.5304C385.682 77.5304 364.256 67.1318 377.883 47.8808C377.883 47.8808 396.923 42.187 400.788 59.7521C400.788 59.7521 408.516 53.4295 416.244 60.1032C423.972 66.7788 418.576 87.7653 418.576 87.7653C418.576 87.7653 423.872 81.2019 430.645 85.3973C439.097 90.6315 435.913 117.365 418.35 131.77Z" fill="#BADC58"/>
<path d="M378.744 48.8644C378.744 48.8644 416.434 89.3041 418.32 131.766C420.206 174.23 409.66 195.252 409.66 195.252" stroke="#6AB04C" stroke-miterlimit="10" stroke-linecap="round" stroke-linejoin="round"/>
<path d="M378.744 65.8242L393.191 67.3538L394.364 51.7964" stroke="#6AB04C" stroke-miterlimit="10" stroke-linecap="round" stroke-linejoin="round"/>
<path d="M381.538 71.0527L397.114 73.1449L398.025 57.4" stroke="#6AB04C" stroke-miterlimit="10" stroke-linecap="round" stroke-linejoin="round"/>
<path d="M386.604 94.6307L410.545 98.3004L417.788 70.129" stroke="#6AB04C" stroke-miterlimit="10" stroke-linecap="round" stroke-linejoin="round"/>
<path d="M391.674 114.107L417.351 122.456L430.454 89.3887" stroke="#6AB04C" stroke-miterlimit="10" stroke-linecap="round" stroke-linejoin="round"/>
<path d="M392.28 109.461L416.218 116.548L426.841 86.8525" stroke="#6AB04C" stroke-miterlimit="10" stroke-linecap="round" stroke-linejoin="round"/>
<path d="M427.796 140.061C427.796 140.061 446.866 97.72 472.806 80.3535C472.806 80.3535 479.754 92.9895 474.085 100.934C468.416 108.878 463.55 108.076 463.55 108.076C463.55 108.076 473.302 117.089 468.01 128.596C462.716 140.103 448.794 134.234 448.794 134.234C448.794 134.234 450.824 139.007 447.736 141.897C444.644 144.789 437.041 146.911 427.796 140.061Z" fill="#BADC58"/>
<path d="M471.691 81.0073C471.691 81.0073 449.863 92.8105 427.756 140.054C416.887 163.286 416.887 206.79 416.887 206.79" stroke="#6AB04C" stroke-miterlimit="10" stroke-linecap="round" stroke-linejoin="round"/>
<path d="M452.041 100.394L472.905 98.2874" stroke="#6AB04C" stroke-miterlimit="10" stroke-linecap="round" stroke-linejoin="round"/>
<path d="M448.364 104.648L468.085 103.559" stroke="#6AB04C" stroke-miterlimit="10" stroke-linecap="round" stroke-linejoin="round"/>
<path d="M434.072 127.563L466.832 123.958" stroke="#6AB04C" stroke-miterlimit="10" stroke-linecap="round" stroke-linejoin="round"/>
<path d="M402.509 141.334C402.509 141.334 377.953 101.92 349.927 88.1755C349.927 88.1755 344.728 101.626 351.409 108.741C358.089 115.856 362.804 114.413 362.804 114.413C362.804 114.413 354.344 124.648 361.126 135.344C367.909 146.041 380.922 138.365 380.922 138.365C380.922 138.365 379.549 143.365 382.996 145.818C386.442 148.271 394.26 149.357 402.509 141.334Z" fill="#BADC58"/>
<path d="M349.956 88.1753C349.956 88.1753 379.767 104.281 402.538 141.334C414.444 160.708 417.946 205.273 417.946 205.273" stroke="#6AB04C" stroke-miterlimit="10" stroke-linecap="round" stroke-linejoin="round"/>
<path d="M355.926 105.836L371.347 104.016" stroke="#6AB04C" stroke-miterlimit="10" stroke-linecap="round" stroke-linejoin="round"/>
<path d="M362.665 124.436L389.048 122.84" stroke="#6AB04C" stroke-miterlimit="10" stroke-linecap="round" stroke-linejoin="round"/>
<path d="M364.541 132.188L394.79 129.815" stroke="#6AB04C" stroke-miterlimit="10" stroke-linecap="round" stroke-linejoin="round"/>
<path d="M385.956 140.9L401.432 139.685" stroke="#6AB04C" stroke-miterlimit="10" stroke-linecap="round" stroke-linejoin="round"/>
<path opacity="0.2" d="M417.135 228.171C440.543 228.171 459.52 225.249 459.52 221.645C459.52 218.04 440.543 215.118 417.135 215.118C393.726 215.118 374.75 218.04 374.75 221.645C374.75 225.249 393.726 228.171 417.135 228.171Z" fill="#4B1306"/>
<path d="M424.059 219.662H409.509C395.496 219.662 384.136 208.3 384.136 194.285V157.054H449.433V194.285C449.433 208.3 438.072 219.662 424.059 219.662Z" fill="#E8C17E"/>
</svg>
